<svg xmlns="http://www.w3.org/2000/svg" width="76.945" height="64.854" viewBox="0 0 76.945 64.854">
  <g id="age-group" transform="translate(0 -40.227)" opacity="0.6">
    <path id="Path_13" data-name="Path 13" d="M17.339,213.091a7.209,7.209,0,1,0-12.394.029c-3.2,1.316-4.945,3.7-4.945,6.844V221.8a1.129,1.129,0,0,0,2.259,0v-1.831c0-2.576,1.628-4.322,4.839-5.189a1.129,1.129,0,0,0,.51-1.883,4.951,4.951,0,1,1,7.067-.016,1.129,1.129,0,0,0,.519,1.881c3.254.86,4.9,2.611,4.9,5.206v8.1a1.308,1.308,0,0,1-2.616,0v-7.312a1.129,1.129,0,1,0-2.259,0v2.176H7.133v-2.176a1.129,1.129,0,1,0-2.259,0v7.312a1.308,1.308,0,0,1-2.616,0v-1.747a1.129,1.129,0,1,0-2.259,0v1.747a3.567,3.567,0,0,0,4.874,3.318V239a3.715,3.715,0,0,0,6.3,2.666,3.715,3.715,0,0,0,6.3-2.666v-7.626a3.567,3.567,0,0,0,4.874-3.318v-8.1c0-3.166-1.766-5.563-5.016-6.873Zm-2.116,12.092v1.755c-1.775,1.827-3.413,2.654-4.045,2.654s-2.27-.827-4.045-2.654v-1.755ZM8.591,240.462A1.459,1.459,0,0,1,7.133,239V229.98a9.462,9.462,0,0,0,2.916,1.684V239A1.459,1.459,0,0,1,8.591,240.462Zm5.174,0A1.459,1.459,0,0,1,12.307,239v-7.341a9.462,9.462,0,0,0,2.916-1.684V239a1.459,1.459,0,0,1-1.458,1.458Z" transform="translate(0 -137.64)" fill="#707070"/>
    <path id="Path_14" data-name="Path 14" d="M186.449,124.332a7.847,7.847,0,1,0-13.347.031c-3.575,1.425-5.52,4.044-5.52,7.5v14.367a3.822,3.822,0,0,0,5.386,3.488v12.671a3.986,3.986,0,0,0,6.846,2.778,3.986,3.986,0,0,0,6.847-2.778v-3.87a1.129,1.129,0,0,0-2.259,0v3.87a1.729,1.729,0,0,1-3.459,0V146.465a1.129,1.129,0,1,0-2.259,0v15.928a1.729,1.729,0,0,1-3.459,0V132.734a1.129,1.129,0,0,0-2.259,0v13.5a1.564,1.564,0,0,1-3.128,0V131.868c0-2.907,1.828-4.875,5.434-5.848a1.129,1.129,0,0,0,.51-1.883,5.589,5.589,0,1,1,7.978-.018,1.129,1.129,0,0,0,.519,1.881c3.654.966,5.506,2.939,5.506,5.867v14.367a1.564,1.564,0,0,1-3.128,0v-13.5a1.129,1.129,0,0,0-2.259,0v21.271a1.129,1.129,0,0,0,2.259,0v-4.284a3.822,3.822,0,0,0,5.386-3.488V131.868c0-3.487-1.972-6.118-5.6-7.536Z" transform="translate(-142.397 -61.299)" fill="#707070"/>
    <path id="Path_15" data-name="Path 15" d="M368.068,52.191a7.847,7.847,0,1,0-13.347.031c-3.575,1.425-5.52,4.044-5.52,7.5v6.749a1.129,1.129,0,0,0,2.259,0V59.727c0-2.907,1.828-4.875,5.434-5.848A1.129,1.129,0,0,0,357.4,52a5.589,5.589,0,1,1,7.978-.018,1.129,1.129,0,0,0,.519,1.881c3.654.966,5.506,2.939,5.506,5.867V79.514a1.564,1.564,0,0,1-3.128,0V60.593a1.129,1.129,0,1,0-2.259,0v40.5a1.729,1.729,0,0,1-3.459,0V79.745a1.129,1.129,0,1,0-2.259,0v21.349a1.729,1.729,0,0,1-3.459,0v-40.5a1.129,1.129,0,1,0-2.259,0V79.514a1.564,1.564,0,0,1-3.128,0V70.993a1.129,1.129,0,0,0-2.259,0v8.521A3.822,3.822,0,0,0,354.587,83v18.091a3.986,3.986,0,0,0,6.847,2.778,3.986,3.986,0,0,0,6.847-2.778V83a3.822,3.822,0,0,0,5.386-3.488V59.727C373.667,56.239,371.694,53.608,368.068,52.191Z" transform="translate(-296.722)" fill="#707070"/>
  </g>
</svg>
