<svg xmlns="http://www.w3.org/2000/svg" width="52.647" height="70.195" viewBox="0 0 52.647 70.195">
  <g id="padlock" transform="translate(-3)" opacity="0.7">
    <path id="Path_33" data-name="Path 33" d="M49.066,52.872H9.581A6.589,6.589,0,0,1,3,46.291V15.581A6.589,6.589,0,0,1,9.581,9H49.066a6.589,6.589,0,0,1,6.581,6.581V46.291A6.589,6.589,0,0,1,49.066,52.872ZM9.581,13.387a2.2,2.2,0,0,0-2.194,2.194V46.291a2.2,2.2,0,0,0,2.194,2.194H49.066a2.2,2.2,0,0,0,2.194-2.194V15.581a2.2,2.2,0,0,0-2.194-2.194Z" transform="translate(0 17.323)" fill="#9e9e9e"/>
    <path id="Path_34" data-name="Path 34" d="M38.9,30.711a2.194,2.194,0,0,1-2.194-2.194V17.549a13.162,13.162,0,0,0-26.323,0V28.517a2.194,2.194,0,1,1-4.387,0V17.549a17.549,17.549,0,0,1,35.1,0V28.517A2.194,2.194,0,0,1,38.9,30.711Z" transform="translate(5.774)" fill="#9e9e9e"/>
    <path id="Path_35" data-name="Path 35" d="M15.85,24.7a5.85,5.85,0,1,1,5.85-5.85A5.856,5.856,0,0,1,15.85,24.7Zm0-7.312a1.462,1.462,0,1,0,1.462,1.462A1.465,1.465,0,0,0,15.85,17.387Z" transform="translate(13.474 25.023)" fill="#9e9e9e"/>
    <path id="Path_36" data-name="Path 36" d="M13.444,28.18a2.194,2.194,0,0,1-2.194-2.194V17.944a2.194,2.194,0,1,1,4.387,0v8.043A2.194,2.194,0,0,1,13.444,28.18Z" transform="translate(15.88 30.316)" fill="#9e9e9e"/>
  </g>
</svg>
