<svg xmlns="http://www.w3.org/2000/svg" width="70.285" height="46.857" viewBox="0 0 70.285 46.857">
  <path id="Path_28" data-name="Path 28" d="M66.681,85.333H3.6a3.615,3.615,0,0,0-3.6,3.6v39.648a3.615,3.615,0,0,0,3.6,3.6H66.681a3.615,3.615,0,0,0,3.6-3.6V88.937A3.615,3.615,0,0,0,66.681,85.333Zm-1.353,2.7L37.216,109.122a3.768,3.768,0,0,1-4.147,0L4.957,88.036ZM50.312,110.513,65.63,129.436c.015.019.034.033.051.051H4.6c.016-.018.035-.032.051-.051l15.319-18.923a1.352,1.352,0,0,0-2.1-1.7L2.7,127.55V89.726l28.745,21.559a6.452,6.452,0,0,0,7.389,0L67.581,89.726V127.55L52.413,108.812a1.352,1.352,0,0,0-2.1,1.7Z" transform="translate(0 -85.333)" fill="#707070"/>
</svg>
