<svg xmlns="http://www.w3.org/2000/svg" width="68.695" height="68.695" viewBox="0 0 68.695 68.695">
  <g id="sex" opacity="0.6">
    <path id="Path_37" data-name="Path 37" d="M36.36,18.247a18.18,18.18,0,1,0-20.126,18V48.436H10.2a2.013,2.013,0,1,0,0,4.025h6.038V58.5a2.013,2.013,0,1,0,4.025,0V52.461H26.3a2.013,2.013,0,0,0,0-4.025H20.26V36.248a18.138,18.138,0,0,0,16.1-18Zm-32.335,0A14.155,14.155,0,1,1,18.247,32.335,14.238,14.238,0,0,1,4.025,18.247Z" fill="#707070"/>
    <path id="Path_38" data-name="Path 38" d="M261.126,85.261V67.871l4.615,4.615a2.013,2.013,0,0,0,2.846-2.846l-8.05-8.05a2.012,2.012,0,0,0-2.846,0l-8.05,8.05a2.013,2.013,0,1,0,2.846,2.846l4.615-4.615V85.263a18.184,18.184,0,0,0,2.013,36.248,18.177,18.177,0,0,0,2.013-36.25Zm-2.013,32.224a14.155,14.155,0,1,1,14.222-14.222A14.172,14.172,0,0,1,259.113,117.485Z" transform="translate(-208.665 -52.815)" fill="#707070"/>
  </g>
</svg>
