<svg xmlns="http://www.w3.org/2000/svg" width="40.135" height="49.67" viewBox="0 0 40.135 49.67">
  <path id="user" d="M64.414,58.794c.364.2,9.028,4.864,18.654,4.864a39.513,39.513,0,0,0,18.682-4.88.8.8,0,0,0,.386-.681A25.58,25.58,0,0,0,96.6,41.567a18.006,18.006,0,0,0-9.091-5.925,10.328,10.328,0,1,0-8.876,0,18.007,18.007,0,0,0-9.091,5.925A25.58,25.58,0,0,0,64,58.1a.794.794,0,0,0,.414.7Zm9.914-32.477a8.739,8.739,0,1,1,8.739,8.739,8.739,8.739,0,0,1-8.739-8.739ZM70.754,42.59a15.725,15.725,0,0,1,24.626,0,23.851,23.851,0,0,1,5.162,15.043,38.884,38.884,0,0,1-17.475,4.436c-8.055,0-15.641-3.536-17.475-4.455A23.847,23.847,0,0,1,70.754,42.59Z" transform="translate(-63 -14.988)" stroke="#707070" stroke-width="2" opacity="0.6"/>
</svg>
